<svg width="243" height="140" viewBox="0 0 243 140" fill="none" xmlns="http://www.w3.org/2000/svg">
<path d="M214.191 110.835C203.749 117.45 192.424 120.831 180.191 120.769C163.367 120.683 148.933 114.629 136.952 102.776C132.86 98.7284 128.717 94.7333 124.603 90.7096C124.261 90.3759 123.956 90.0058 123.595 89.6102C127.5 85.8273 131.334 82.114 135.305 78.2675C135.585 78.5177 136.133 78.9708 136.639 79.4656C141.036 83.7589 145.329 88.1645 149.837 92.3368C159.457 101.239 170.874 105.368 183.958 104.257C200.16 102.883 212.45 95.0241 220.288 80.7987C230.743 61.8236 226.23 37.2159 208.037 24.2283C191.875 12.6908 168.977 14.4306 154.703 28.4381C147.637 35.3723 140.736 42.4747 133.758 49.4992C133.451 49.8087 133.126 50.1008 132.707 50.498C128.564 44.4467 122.603 43.0234 115.366 43.8814C115.859 43.1349 115.996 42.7708 116.495 42.1964C124.832 33.9118 133.087 25.54 141.565 17.4015C151.326 8.03137 162.818 1.83892 176.412 0.417555C198.184 -1.85895 216.345 5.12971 230.119 22.4502C237.325 31.5115 241.267 41.948 242.093 53.4733C243.823 77.6313 234.315 96.4625 214.754 110.435C214.595 110.548 214.439 110.664 214.191 110.835Z" fill="url(#paint0_linear_244_48)"/>
<path d="M44.086 117.222C21.5711 110.278 7.23029 95.2345 1.89141 72.7004C-3.96568 47.9791 3.9027 27.3323 23.7957 11.4745C32.3382 4.66478 42.2775 1.14942 53.1271 0.259636C70.5419 -1.16859 85.719 4.11801 98.5944 15.8619C103.993 20.7861 109.137 25.9894 114.446 31.1131C110.385 35.1141 106.439 39.0009 102.249 43.1287C100.802 41.6249 99.322 39.9507 97.7001 38.428C93.0101 34.0248 88.5343 29.3353 83.482 25.3884C72.8072 17.0491 60.5814 14.6818 47.5933 18.3256C30.6555 23.0775 20.6208 34.76 17.4554 51.7812C13.025 75.605 29.0728 97.5266 50.6679 101.728C65.0717 104.53 77.9495 100.956 88.5577 90.4948C94.1475 84.9823 99.5788 79.3091 105.076 73.7026C105.313 73.4602 105.491 73.1589 105.75 72.8136C110.687 77.8129 116.608 78.8797 123.391 77.8522C123.162 78.3758 123.162 78.5997 122.864 79.2135C114.004 88.0033 105.402 97.0803 96.1609 105.451C87.4954 113.3 76.8816 117.467 65.2388 118.767C58.1494 119.558 51.1275 118.955 44.086 117.222Z" fill="url(#paint1_linear_244_48)"/>
<path d="M194.935 60.5784C194.935 65.3001 194.935 69.8755 194.935 74.6245C193.013 74.6245 191.177 74.6621 189.345 74.5893C189.019 74.5764 188.639 74.1569 188.406 73.8366C184.509 68.4903 180.632 63.13 176.75 57.7727C176.619 57.5919 176.489 57.4102 176.156 56.9462C176.156 62.9729 176.156 68.6677 176.156 74.4847C174.159 74.4847 172.241 74.4847 170.207 74.4847C170.207 65.5619 170.207 56.571 170.207 47.409C171.945 47.409 173.735 47.3406 175.512 47.4565C175.963 47.4859 176.475 48.0294 176.79 48.4601C180.639 53.7196 184.456 59.002 188.281 64.279C188.387 64.4252 188.485 64.5776 188.773 65.0025C188.773 58.9416 188.773 53.2709 188.773 47.5042C190.814 47.5042 192.787 47.5042 194.936 47.5042C194.936 51.7922 194.936 56.1121 194.935 60.5784Z" fill="#1A1A1A"/>
<path d="M53.0828 66.5505C53.0842 69.2606 53.0842 71.8357 53.0842 74.4885C51.0357 74.4885 49.1113 74.4885 47.0566 74.4885C47.0566 65.5043 47.0566 56.5226 47.0566 47.263C51.9961 47.4163 56.912 47.3356 61.7767 47.7961C65.4694 48.1457 68.4137 51.4507 68.8113 54.8069C69.3243 59.1359 67.5025 62.2425 63.1326 64.2774C65.0338 67.6293 66.9292 70.971 68.955 74.5424C66.7164 74.5424 64.6605 74.5784 62.6089 74.501C62.3232 74.4902 61.9927 73.958 61.7948 73.6046C60.4443 71.1937 59.066 68.7951 57.8208 66.3298C57.2946 65.2881 56.7097 64.7539 55.4993 64.9287C54.7413 65.0381 53.9546 64.949 53.0814 64.949C53.0814 65.4819 53.0814 65.9487 53.0828 66.5505ZM53.0612 56.6253C53.0612 57.8181 53.0612 59.0108 53.0612 60.3262C55.3212 60.2132 57.3667 60.2031 59.3894 59.9832C61.3145 59.774 62.4912 58.3808 62.6442 56.4571C62.783 54.7115 61.773 52.9481 59.9836 52.624C57.7322 52.2162 55.4067 52.2177 53.0588 52.0385C53.0588 53.7113 53.0588 55.0233 53.0612 56.6253Z" fill="#1A1A1A"/>
<path d="M118.52 63.5192C116.504 62.7891 114.473 62.3057 112.745 61.3013C110.173 59.8064 108.556 57.5439 108.846 54.3227C109.128 51.1755 110.898 49.1159 113.685 47.9293C117.556 46.2816 121.441 46.4212 125.201 48.3182C127.184 49.3188 128.587 50.8925 129.313 53.2397C127.687 53.9518 126.072 54.6593 124.334 55.4206C123.342 53.6094 122.07 52.0977 119.939 51.9595C118.717 51.8804 117.389 51.99 116.252 52.4054C114.413 53.0769 114.086 55.1979 115.666 56.3488C116.72 57.1169 118.097 57.4577 119.352 57.9301C121.695 58.8116 124.172 59.4183 126.382 60.5521C131.666 63.2637 131.111 70.7926 126.277 73.3579C121.27 76.0146 116.177 75.6944 111.338 72.7497C109.467 71.6113 108.452 69.7783 107.994 67.4412C109.463 66.7971 110.944 66.1472 112.501 65.4644C112.815 66.0205 113.079 66.5251 113.376 67.0099C115.104 69.8343 119.48 71.1266 122.375 69.5056C123.111 69.0938 123.897 68.0718 123.928 67.3011C123.958 66.5435 123.231 65.4664 122.526 65.0343C121.362 64.3204 119.949 64.0121 118.52 63.5192Z" fill="#1A1A1A"/>
<path d="M148.434 58.5117C151.402 58.5115 154.222 58.5115 157.146 58.5115C157.146 60.0963 157.146 61.823 157.146 63.6198C153.826 63.6198 150.485 63.6198 147.075 63.6198C147.075 65.4141 147.075 67.1972 147.075 69.1039C151.076 69.1039 155.081 69.1039 159.165 69.1039C159.165 70.9297 159.165 72.6621 159.165 74.5137C153.206 74.5137 147.24 74.5137 141.165 74.5137C141.165 65.5428 141.165 56.5138 141.165 47.4554C146.972 47.4554 152.755 47.4554 158.609 47.4554C158.609 49.1418 158.609 50.7812 158.609 52.5456C154.811 52.5456 150.99 52.5456 147.089 52.5456C147.089 54.5411 147.089 56.4148 147.089 58.421C147.471 58.45 147.879 58.4809 148.434 58.5117Z" fill="#1A1A1A"/>
<path d="M79.6322 47.4066C81.6989 47.0533 82.8142 47.8166 83.6932 49.6194C85.1339 52.5743 86.9053 55.368 88.6326 58.3969C90.547 55.1073 92.4471 51.9682 94.2039 48.7509C94.7696 47.7149 95.3751 47.3012 96.548 47.3794C98.1454 47.4859 99.7552 47.406 101.573 47.406C99.939 50.2016 98.3977 52.8721 96.8236 55.5231C95.214 58.2339 93.551 60.9132 91.9649 63.6375C91.6931 64.1045 91.5855 64.7264 91.5789 65.2788C91.5426 68.2957 91.5616 71.3132 91.5616 74.4499C89.637 74.4499 87.7654 74.4499 85.6131 74.4499C85.6131 73.6295 85.5201 72.724 85.6283 71.8432C86.272 66.6029 84.9643 61.9874 81.8642 57.6602C79.5982 54.4972 77.8872 50.9365 75.844 47.4066C77.1801 47.4066 78.3355 47.4066 79.6322 47.4066Z" fill="#1A1A1A"/>
<path d="M18.865 136.649H20.5447C20.4909 137.29 20.3118 137.861 20.0072 138.363C19.7026 138.86 19.2749 139.252 18.724 139.538C18.173 139.825 17.5034 139.968 16.7151 139.968C16.1105 139.968 15.5663 139.861 15.0825 139.646C14.5988 139.426 14.1845 139.117 13.8396 138.719C13.4947 138.316 13.2304 137.83 13.0468 137.261C12.8676 136.692 12.7781 136.056 12.7781 135.353V134.54C12.7781 133.837 12.8699 133.201 13.0535 132.632C13.2416 132.063 13.5104 131.577 13.8597 131.174C14.2091 130.766 14.6279 130.455 15.1161 130.24C15.6088 130.025 16.162 129.917 16.7756 129.917C17.5549 129.917 18.2134 130.061 18.7508 130.347C19.2883 130.634 19.7049 131.03 20.0005 131.537C20.3006 132.043 20.4842 132.623 20.5514 133.277H18.8718C18.827 132.856 18.7284 132.495 18.5762 132.195C18.4283 131.895 18.2089 131.666 17.9177 131.51C17.6266 131.348 17.2459 131.268 16.7756 131.268C16.3904 131.268 16.0545 131.34 15.7678 131.483C15.4812 131.626 15.2415 131.837 15.0489 132.114C14.8563 132.392 14.7108 132.735 14.6122 133.142C14.5182 133.545 14.4711 134.007 14.4711 134.526V135.353C14.4711 135.845 14.5137 136.293 14.5988 136.696C14.6884 137.095 14.8227 137.438 15.0019 137.724C15.1855 138.011 15.4184 138.233 15.7006 138.39C15.9828 138.546 16.321 138.625 16.7151 138.625C17.1944 138.625 17.5818 138.549 17.8774 138.396C18.1775 138.244 18.4037 138.022 18.556 137.731C18.7128 137.435 18.8158 137.075 18.865 136.649ZM31.2527 134.674V135.212C31.2527 135.951 31.1564 136.614 30.9638 137.2C30.7712 137.787 30.4957 138.286 30.1374 138.699C29.7836 139.111 29.358 139.426 28.8609 139.646C28.3637 139.861 27.8128 139.968 27.2081 139.968C26.6079 139.968 26.0592 139.861 25.5621 139.646C25.0694 139.426 24.6416 139.111 24.2788 138.699C23.916 138.286 23.6339 137.787 23.4323 137.2C23.2352 136.614 23.1367 135.951 23.1367 135.212V134.674C23.1367 133.935 23.2352 133.274 23.4323 132.692C23.6294 132.105 23.9071 131.606 24.2654 131.194C24.6282 130.777 25.0559 130.462 25.5486 130.247C26.0458 130.027 26.5945 129.917 27.1947 129.917C27.7993 129.917 28.3503 130.027 28.8474 130.247C29.3446 130.462 29.7724 130.777 30.1307 131.194C30.489 131.606 30.7645 132.105 30.9571 132.692C31.1541 133.274 31.2527 133.935 31.2527 134.674ZM29.5663 135.212V134.661C29.5663 134.114 29.5126 133.633 29.4051 133.216C29.3021 132.795 29.1475 132.444 28.9415 132.161C28.7399 131.875 28.4914 131.66 28.1957 131.516C27.9001 131.369 27.5664 131.295 27.1947 131.295C26.8229 131.295 26.4915 131.369 26.2003 131.516C25.9092 131.66 25.6606 131.875 25.4546 132.161C25.253 132.444 25.0985 132.795 24.991 133.216C24.8835 133.633 24.8298 134.114 24.8298 134.661V135.212C24.8298 135.758 24.8835 136.242 24.991 136.663C25.0985 137.084 25.2553 137.44 25.4613 137.731C25.6718 138.018 25.9226 138.235 26.2138 138.383C26.5049 138.526 26.8364 138.598 27.2081 138.598C27.5844 138.598 27.918 138.526 28.2092 138.383C28.5003 138.235 28.7467 138.018 28.9482 137.731C29.1498 137.44 29.3021 137.084 29.4051 136.663C29.5126 136.242 29.5663 135.758 29.5663 135.212ZM37.9766 131.355L35.054 139.834H33.287L36.9688 130.052H38.0975L37.9766 131.355ZM40.4221 139.834L37.4928 131.355L37.3652 130.052H38.5006L42.1958 139.834H40.4221ZM40.281 136.206V137.543H34.96V136.206H40.281ZM50.3373 136.649H52.0169C51.9632 137.29 51.784 137.861 51.4795 138.363C51.1749 138.86 50.7471 139.252 50.1962 139.538C49.6453 139.825 48.9757 139.968 48.1874 139.968C47.5827 139.968 47.0385 139.861 46.5548 139.646C46.0711 139.426 45.6567 139.117 45.3119 138.719C44.967 138.316 44.7027 137.83 44.5191 137.261C44.3399 136.692 44.2503 136.056 44.2503 135.353V134.54C44.2503 133.837 44.3422 133.201 44.5258 132.632C44.7139 132.063 44.9827 131.577 45.332 131.174C45.6814 130.766 46.1002 130.455 46.5884 130.24C47.0811 130.025 47.6342 129.917 48.2479 129.917C49.0272 129.917 49.6856 130.061 50.2231 130.347C50.7606 130.634 51.1771 131.03 51.4727 131.537C51.7728 132.043 51.9565 132.623 52.0237 133.277H50.344C50.2992 132.856 50.2007 132.495 50.0484 132.195C49.9006 131.895 49.6811 131.666 49.39 131.51C49.0989 131.348 48.7182 131.268 48.2479 131.268C47.8627 131.268 47.5267 131.34 47.2401 131.483C46.9534 131.626 46.7138 131.837 46.5212 132.114C46.3286 132.392 46.183 132.735 46.0845 133.142C45.9904 133.545 45.9434 134.007 45.9434 134.526V135.353C45.9434 135.845 45.986 136.293 46.0711 136.696C46.1606 137.095 46.295 137.438 46.4742 137.724C46.6578 138.011 46.8907 138.233 47.1729 138.39C47.4551 138.546 47.7932 138.625 48.1874 138.625C48.6666 138.625 49.0541 138.549 49.3497 138.396C49.6498 138.244 49.876 138.022 50.0283 137.731C50.185 137.435 50.288 137.075 50.3373 136.649ZM61.388 134.137V135.474H56.1945V134.137H61.388ZM56.6111 130.052V139.834H54.9247V130.052H56.6111ZM62.6846 130.052V139.834H61.005V130.052H62.6846ZM67.87 130.052V139.834H66.1836V130.052H67.87ZM79.102 130.052V139.834H77.4157L73.0285 132.827V139.834H71.3421V130.052H73.0285L77.4291 137.073V130.052H79.102ZM89.9981 134.835V138.571C89.8593 138.755 89.642 138.956 89.3464 139.176C89.0553 139.391 88.6679 139.576 88.1841 139.733C87.7004 139.89 87.098 139.968 86.3768 139.968C85.7632 139.968 85.2011 139.865 84.6905 139.659C84.1799 139.449 83.7387 139.142 83.3669 138.739C82.9997 138.336 82.7152 137.845 82.5137 137.268C82.3121 136.685 82.2114 136.022 82.2114 135.279V134.6C82.2114 133.861 82.3032 133.203 82.4868 132.625C82.6749 132.043 82.9437 131.55 83.293 131.147C83.6424 130.744 84.0634 130.439 84.5561 130.233C85.0533 130.023 85.6154 129.917 86.2425 129.917C87.0442 129.917 87.7071 130.052 88.2312 130.321C88.7597 130.585 89.1673 130.952 89.4539 131.422C89.7406 131.893 89.922 132.43 89.9981 133.035H88.3454C88.2916 132.694 88.1864 132.39 88.0296 132.121C87.8773 131.852 87.6578 131.642 87.3712 131.49C87.089 131.333 86.7217 131.254 86.2693 131.254C85.8797 131.254 85.537 131.328 85.2414 131.476C84.9458 131.624 84.6994 131.841 84.5024 132.128C84.3098 132.414 84.1642 132.764 84.0657 133.176C83.9671 133.588 83.9179 134.058 83.9179 134.587V135.279C83.9179 135.816 83.9738 136.293 84.0858 136.71C84.2023 137.126 84.368 137.478 84.583 137.765C84.8025 138.051 85.069 138.269 85.3825 138.416C85.696 138.56 86.0499 138.631 86.444 138.631C86.8292 138.631 87.145 138.6 87.3913 138.537C87.6377 138.47 87.8325 138.392 87.9758 138.302C88.1237 138.208 88.2379 138.119 88.3185 138.033V136.092H86.2828V134.835H89.9981ZM101.854 131.355L98.9311 139.834H97.1641L100.846 130.052H101.975L101.854 131.355ZM104.299 139.834L101.37 131.355L101.242 130.052H102.378L106.073 139.834H104.299ZM104.158 136.206V137.543H98.837V136.206H104.158ZM116.304 130.052V139.834H114.617L110.23 132.827V139.834H108.544V130.052H110.23L114.631 137.073V130.052H116.304ZM122.531 139.834H120.441L120.455 138.497H122.531C123.135 138.497 123.641 138.365 124.049 138.101C124.461 137.836 124.77 137.458 124.976 136.965C125.187 136.472 125.292 135.886 125.292 135.205V134.674C125.292 134.146 125.231 133.678 125.11 133.27C124.994 132.862 124.819 132.52 124.586 132.242C124.358 131.964 124.076 131.754 123.74 131.611C123.408 131.467 123.026 131.396 122.591 131.396H120.401V130.052H122.591C123.241 130.052 123.834 130.162 124.371 130.381C124.909 130.596 125.373 130.907 125.762 131.315C126.156 131.722 126.459 132.211 126.669 132.78C126.88 133.348 126.985 133.984 126.985 134.688V135.205C126.985 135.908 126.88 136.544 126.669 137.113C126.459 137.682 126.156 138.17 125.762 138.578C125.368 138.981 124.898 139.292 124.351 139.511C123.809 139.726 123.202 139.834 122.531 139.834ZM121.375 130.052V139.834H119.689V130.052H121.375ZM140.634 136.649H142.314C142.26 137.29 142.081 137.861 141.776 138.363C141.472 138.86 141.044 139.252 140.493 139.538C139.942 139.825 139.273 139.968 138.484 139.968C137.88 139.968 137.336 139.861 136.852 139.646C136.368 139.426 135.954 139.117 135.609 138.719C135.264 138.316 135 137.83 134.816 137.261C134.637 136.692 134.547 136.056 134.547 135.353V134.54C134.547 133.837 134.639 133.201 134.823 132.632C135.011 132.063 135.28 131.577 135.629 131.174C135.978 130.766 136.397 130.455 136.885 130.24C137.378 130.025 137.931 129.917 138.545 129.917C139.324 129.917 139.983 130.061 140.52 130.347C141.058 130.634 141.474 131.03 141.77 131.537C142.07 132.043 142.253 132.623 142.321 133.277H140.641C140.596 132.856 140.498 132.495 140.345 132.195C140.198 131.895 139.978 131.666 139.687 131.51C139.396 131.348 139.015 131.268 138.545 131.268C138.16 131.268 137.824 131.34 137.537 131.483C137.25 131.626 137.011 131.837 136.818 132.114C136.626 132.392 136.48 132.735 136.381 133.142C136.287 133.545 136.24 134.007 136.24 134.526V135.353C136.24 135.845 136.283 136.293 136.368 136.696C136.458 137.095 136.592 137.438 136.771 137.724C136.955 138.011 137.188 138.233 137.47 138.39C137.752 138.546 138.09 138.625 138.484 138.625C138.964 138.625 139.351 138.549 139.647 138.396C139.947 138.244 140.173 138.022 140.325 137.731C140.482 137.435 140.585 137.075 140.634 136.649ZM153.022 134.674V135.212C153.022 135.951 152.926 136.614 152.733 137.2C152.54 137.787 152.265 138.286 151.907 138.699C151.553 139.111 151.127 139.426 150.63 139.646C150.133 139.861 149.582 139.968 148.977 139.968C148.377 139.968 147.829 139.861 147.331 139.646C146.839 139.426 146.411 139.111 146.048 138.699C145.685 138.286 145.403 137.787 145.202 137.2C145.004 136.614 144.906 135.951 144.906 135.212V134.674C144.906 133.935 145.004 133.274 145.202 132.692C145.399 132.105 145.676 131.606 146.035 131.194C146.397 130.777 146.825 130.462 147.318 130.247C147.815 130.027 148.364 129.917 148.964 129.917C149.569 129.917 150.12 130.027 150.617 130.247C151.114 130.462 151.542 130.777 151.9 131.194C152.258 131.606 152.534 132.105 152.726 132.692C152.923 133.274 153.022 133.935 153.022 134.674ZM151.336 135.212V134.661C151.336 134.114 151.282 133.633 151.174 133.216C151.071 132.795 150.917 132.444 150.711 132.161C150.509 131.875 150.261 131.66 149.965 131.516C149.669 131.369 149.336 131.295 148.964 131.295C148.592 131.295 148.261 131.369 147.97 131.516C147.678 131.66 147.43 131.875 147.224 132.161C147.022 132.444 146.868 132.795 146.76 133.216C146.653 133.633 146.599 134.114 146.599 134.661V135.212C146.599 135.758 146.653 136.242 146.76 136.663C146.868 137.084 147.025 137.44 147.231 137.731C147.441 138.018 147.692 138.235 147.983 138.383C148.274 138.526 148.606 138.598 148.977 138.598C149.354 138.598 149.687 138.526 149.978 138.383C150.27 138.235 150.516 138.018 150.717 137.731C150.919 137.44 151.071 137.084 151.174 136.663C151.282 136.242 151.336 135.758 151.336 135.212ZM163.844 130.052V139.834H162.158L157.771 132.827V139.834H156.084V130.052H157.771L162.171 137.073V130.052H163.844ZM172.375 137.315C172.375 137.113 172.344 136.934 172.281 136.777C172.223 136.62 172.118 136.477 171.966 136.347C171.813 136.217 171.598 136.092 171.321 135.971C171.047 135.845 170.698 135.718 170.272 135.588C169.807 135.445 169.377 135.286 168.982 135.111C168.593 134.932 168.252 134.726 167.961 134.493C167.67 134.255 167.444 133.984 167.283 133.68C167.121 133.371 167.041 133.015 167.041 132.612C167.041 132.213 167.124 131.85 167.289 131.523C167.46 131.196 167.699 130.914 168.008 130.677C168.322 130.435 168.691 130.249 169.117 130.119C169.542 129.985 170.013 129.917 170.528 129.917C171.253 129.917 171.878 130.052 172.402 130.321C172.931 130.589 173.336 130.95 173.618 131.402C173.905 131.855 174.048 132.354 174.048 132.9H172.375C172.375 132.578 172.306 132.294 172.167 132.047C172.033 131.796 171.827 131.599 171.549 131.456C171.276 131.313 170.929 131.241 170.508 131.241C170.109 131.241 169.778 131.301 169.513 131.422C169.249 131.543 169.052 131.707 168.922 131.913C168.792 132.119 168.727 132.352 168.727 132.612C168.727 132.795 168.77 132.963 168.855 133.115C168.94 133.263 169.07 133.402 169.245 133.532C169.419 133.657 169.639 133.776 169.903 133.888C170.167 134 170.478 134.108 170.837 134.211C171.379 134.372 171.851 134.551 172.254 134.748C172.658 134.941 172.993 135.16 173.262 135.406C173.531 135.653 173.732 135.933 173.867 136.246C174.001 136.555 174.068 136.907 174.068 137.301C174.068 137.713 173.986 138.085 173.82 138.416C173.654 138.743 173.417 139.023 173.108 139.256C172.803 139.485 172.436 139.662 172.006 139.787C171.58 139.908 171.106 139.968 170.581 139.968C170.111 139.968 169.648 139.906 169.191 139.78C168.738 139.655 168.326 139.464 167.955 139.209C167.583 138.949 167.287 138.627 167.068 138.242C166.848 137.852 166.738 137.397 166.738 136.878H168.425C168.425 137.196 168.479 137.467 168.586 137.691C168.698 137.915 168.853 138.098 169.05 138.242C169.247 138.381 169.475 138.484 169.735 138.551C169.999 138.618 170.281 138.652 170.581 138.652C170.976 138.652 171.305 138.596 171.569 138.484C171.838 138.372 172.039 138.215 172.174 138.013C172.308 137.812 172.375 137.579 172.375 137.315ZM182.425 130.052H184.105V136.589C184.105 137.332 183.943 137.955 183.621 138.457C183.298 138.958 182.859 139.337 182.304 139.592C181.753 139.843 181.137 139.968 180.456 139.968C179.753 139.968 179.126 139.843 178.575 139.592C178.024 139.337 177.59 138.958 177.272 138.457C176.958 137.955 176.801 137.332 176.801 136.589V130.052H178.481V136.589C178.481 137.059 178.562 137.447 178.723 137.751C178.884 138.051 179.113 138.273 179.408 138.416C179.704 138.56 180.053 138.631 180.456 138.631C180.859 138.631 181.207 138.56 181.498 138.416C181.793 138.273 182.022 138.051 182.183 137.751C182.344 137.447 182.425 137.059 182.425 136.589V130.052ZM193.442 138.497V139.834H188.531V138.497H193.442ZM189.001 130.052V139.834H187.315V130.052H189.001ZM198.466 130.052V139.834H196.793V130.052H198.466ZM201.536 130.052V131.396H193.75V130.052H201.536ZM206.003 130.052V139.834H204.317V130.052H206.003ZM217.235 130.052V139.834H215.549L211.161 132.827V139.834H209.475V130.052H211.161L215.562 137.073V130.052H217.235ZM228.131 134.835V138.571C227.992 138.755 227.775 138.956 227.479 139.176C227.188 139.391 226.801 139.576 226.317 139.733C225.833 139.89 225.231 139.968 224.51 139.968C223.896 139.968 223.334 139.865 222.823 139.659C222.313 139.449 221.872 139.142 221.5 138.739C221.133 138.336 220.848 137.845 220.647 137.268C220.445 136.685 220.344 136.022 220.344 135.279V134.6C220.344 133.861 220.436 133.203 220.62 132.625C220.808 132.043 221.077 131.55 221.426 131.147C221.775 130.744 222.196 130.439 222.689 130.233C223.186 130.023 223.748 129.917 224.375 129.917C225.177 129.917 225.84 130.052 226.364 130.321C226.893 130.585 227.3 130.952 227.587 131.422C227.874 131.893 228.055 132.43 228.131 133.035H226.478C226.425 132.694 226.319 132.39 226.163 132.121C226.01 131.852 225.791 131.642 225.504 131.49C225.222 131.333 224.855 131.254 224.402 131.254C224.013 131.254 223.67 131.328 223.374 131.476C223.079 131.624 222.832 131.841 222.635 132.128C222.443 132.414 222.297 132.764 222.199 133.176C222.1 133.588 222.051 134.058 222.051 134.587V135.279C222.051 135.816 222.107 136.293 222.219 136.71C222.335 137.126 222.501 137.478 222.716 137.765C222.935 138.051 223.202 138.269 223.515 138.416C223.829 138.56 224.183 138.631 224.577 138.631C224.962 138.631 225.278 138.6 225.524 138.537C225.771 138.47 225.965 138.392 226.109 138.302C226.257 138.208 226.371 138.119 226.451 138.033V136.092H224.416V134.835H228.131Z" fill="#1A1A1A"/>
<defs>
<linearGradient id="paint0_linear_244_48" x1="244.486" y1="143.092" x2="38.0473" y2="-63.3472" gradientUnits="userSpaceOnUse">
<stop stop-color="#FE2009"/>
<stop offset="0.528846" stop-color="#FDA400"/>
<stop offset="1" stop-color="#FE230A"/>
</linearGradient>
<linearGradient id="paint1_linear_244_48" x1="244.486" y1="143.092" x2="38.0473" y2="-63.3472" gradientUnits="userSpaceOnUse">
<stop stop-color="#FE2009"/>
<stop offset="0.528846" stop-color="#FDA400"/>
<stop offset="1" stop-color="#FE230A"/>
</linearGradient>
</defs>
</svg>
